<svg width="1047" height="365" viewBox="0 0 1047 365" fill="none" xmlns="http://www.w3.org/2000/svg">
<path d="M165.438 19.3834C210.4 16.0027 251.745 39.3942 232.357 83.0065C221.676 107.028 190.274 140.708 158.301 140.456C140.84 140.309 131.253 127.48 145.86 116.519C150.403 113.117 156.612 113.012 154.281 106.083C153.829 104.697 151.64 103.458 150.166 102.891C137.201 97.9989 119.311 112.844 117.075 123.679C111.532 150.535 144.171 150.157 164.13 157.233C188.371 165.821 205.19 181.507 211.399 204.163C232.095 279.797 134.988 343.294 55.9607 321.666C-16.8101 301.761 -19.8789 220.29 54.2241 200.027C70.7338 195.512 102.349 192.552 116.242 203.281C121.785 207.565 121.952 214.221 116.242 218.4C112.626 221.045 102.564 222.62 111.58 227.87C124.64 235.471 144.884 222.725 144.789 209.161C144.551 178.861 87.6478 183.963 65.0244 178.042C20.1106 166.304 21.4665 128.278 40.7357 97.1589C63.8111 59.867 116.409 23.058 165.486 19.3624L165.438 19.3834Z" fill="#C6FF34"/>
<path d="M537.833 246.572C593.079 245.058 654.799 245.478 709.116 254.165C725.921 256.857 769.289 265.334 775.74 281.045C783.951 301.048 752.603 306.327 736.894 307.106C686.075 309.587 638.137 295.832 588.985 318.316C568.181 327.844 548.259 351.338 522.837 343.619C505.438 338.34 507.461 323.448 519.981 314.257C546.116 295.053 597.72 292.508 630.258 289.501C633.305 289.227 639.898 288.386 635.328 285.21C618.881 283.065 602.243 283.59 585.676 283.485C526.67 286.262 469.924 299.176 415.25 318.064C365.883 335.122 284.146 376.936 231.804 360.193C210.001 353.21 195.433 332.409 211.31 313.941C232.232 289.585 300.379 275.892 333.607 269.477C398.35 256.962 471.567 248.381 537.857 246.551L537.833 246.572Z" fill="#C6FF34"/>
<path d="M628.232 0.115439C688.561 -2.32524 739.42 34.2008 690.886 84.5294C683.553 92.125 670.382 100.541 664.377 108.095C662.289 110.704 661.6 113.102 665.303 114.87C667.985 116.153 675.271 117.142 679.163 118.531C736.999 138.961 726.652 206.311 674.986 229.119C650.755 239.807 591.518 246.393 579.794 218.031C576.899 211.024 580.53 209.362 581.954 202.818C585.609 186.154 577.872 176.981 574.692 161.811C570.895 143.695 571.227 127.22 574.739 109.105C576.804 98.374 585.466 77.0811 584.683 67.9706C583.853 58.4394 576.709 61.6795 568.949 59.849C560.785 57.9133 553.783 50.3178 553.024 42.8484C549.867 12.0453 601.961 1.20956 628.232 0.1365V0.115439ZM630.796 55.5358C626.571 55.8935 621.421 55.9356 620.235 59.828C618.122 66.7082 616.722 81.6469 616.39 89.0531C616.271 91.4517 615.868 103.971 618.621 104.644C633.216 98.9421 661.553 81.9414 656.095 65.2985C653.033 55.9566 639.885 54.7362 630.796 55.5147V55.5358ZM624.269 182.725C630.274 185.839 637.156 184.177 643.184 181.925C661.577 175.003 664.164 154.636 644.062 148.113C640.929 147.103 623.439 144.473 621.943 146.367L624.293 182.725H624.269Z" fill="#C6FF34"/>
<path d="M970.56 134.003C965.885 146.864 967.483 160.418 972.253 173.069C982.771 200.935 1013.16 216.759 1018.5 247.566C1024.6 282.661 994.482 307.605 955.009 299.704C943.227 297.35 923.67 285.96 922.501 274.465C922.382 273.204 927.438 262.781 928.13 259.292C934.76 226.089 914.964 198.476 921.738 165.693C924.385 152.832 931.04 142.598 934.641 130.809C938.958 116.624 932.28 120.532 921.07 119.587C914.631 119.04 908.072 117.254 903.349 113.219C899.939 100.421 897.935 86.1523 890.327 74.6363C885.533 67.4072 877.424 65.4319 884.102 56.7108C900.75 34.9395 948.713 36.2004 970.965 50.5955C979.766 56.2905 981.65 61.7753 987.374 68.7522C992.574 75.0776 1005.69 76.0863 1013.9 79.5117C1029.26 85.9212 1042.47 97.7104 1045.9 112.736C1054.37 149.953 1012.01 172.102 981.722 144.258C980.219 142.871 972.444 132.784 970.56 134.003Z" fill="#C6FF34"/>
<path d="M360.565 44.2616C377.974 42.4089 388.396 46.388 391.734 62.0938C395.048 77.7153 389.357 94.8316 391.974 111.274C394.255 125.717 399.514 119.696 402.468 109.864C408.735 89.0841 402.972 46.9985 440.048 50.1355C471.77 52.8303 468.408 97.0423 467.351 117.359C465.982 143.465 458.442 171.929 460.435 197.888C461.564 212.457 470.785 225.51 454.288 236.584C438.415 247.216 404.605 245.995 400.859 225.068C398.434 211.551 411.184 192.077 416.275 178.919C421.366 165.76 425.4 152.96 424.104 139.359C423.959 137.823 424.296 136.054 421.894 135.949C419.301 135.949 417.116 141.296 416.251 143.191C411.809 152.834 411.208 163.844 407.558 173.55C401.411 189.845 385.971 189.403 381 172.603C378.887 165.466 377.854 149.107 374.18 143.633C370.17 137.696 366.808 143.949 366.808 148.518C366.832 162.602 371.707 178.266 376.654 191.593C381.576 204.772 390.893 219.046 387.46 233.405C383.786 248.816 364.407 254.226 348.486 250.458C323.921 244.626 335.759 224.162 337.392 208.499C340.874 175.466 332.47 142.496 329.612 109.737C327.619 86.9367 325.602 47.988 360.613 44.2405L360.565 44.2616Z" fill="#C6FF34"/>
<path d="M211.816 269.252C213.548 263.771 216.585 258.882 218.413 253.38C227.026 227.709 224.559 200.048 208.233 177.361C207.022 175.668 203.558 173.002 202.846 171.478C200.331 165.954 210.084 139.204 212.86 132.368C219.03 117.3 232.057 97.1527 242.261 83.7564C254.292 67.9475 278.733 55.5247 299.971 63.4609C319.382 70.7199 318.67 90.6768 320.544 106.211C324.887 142.315 339.718 223.963 313.663 252.829C298.476 269.633 269.004 266.395 266.607 242.904C264.899 226.227 273.512 210.503 276.645 194.588C278.092 187.266 279.374 182.843 268.838 183.816C266.038 184.07 252.892 187.689 250.566 188.895C249.38 189.53 248.905 189.572 248.62 190.969C247.932 194.313 249.047 201.72 249.498 205.466C251.515 222.375 259.939 245.528 246.888 260.448C238.63 269.908 224.44 272.702 211.792 269.252H211.816ZM278.614 153.934C276.645 143.394 277.855 131.966 276.882 121.49C275.126 102.782 265.112 108.729 259.109 121.66C254.031 132.622 251.729 145.087 248.858 156.642C249.403 159.436 256.854 155.944 258.705 155.648C265.255 154.653 272.018 154.568 278.614 153.934Z" fill="#C6FF34"/>
<path d="M861.071 188.729C857.886 186.327 849.092 186.116 846.454 189.425C844.767 205.147 845.813 222.745 841.344 238.088C836.876 253.431 824.065 262.008 806.406 258.109C797.54 256.149 792.715 251.787 790.148 244.073C820.12 229.278 839.467 194.019 820.5 165.757C817.054 160.594 811.658 155.852 808.307 150.71C788.58 120.593 806.762 55.5337 854.868 59.243C881.773 61.3083 888.975 87.9686 893.491 107.126C898.006 126.283 900.954 147.317 905.47 167.233C911.578 194.335 925.316 229.784 919.231 256.971C911.792 290.207 866.49 285.844 856.579 256.191C849.259 234.294 861.428 218.972 862.997 198.761C863.21 195.937 863.615 190.668 861.048 188.729H861.071ZM856.746 108.896C850.21 102.321 845.551 118.001 844.577 121.584C842.533 129.044 839.68 144.218 839.775 151.637C839.775 153.154 840.132 155.262 842.176 155.683C843.46 155.936 851.065 154.84 854.036 155.009C857.007 155.178 859.812 155.978 862.664 156.526L864.66 155.325C862.07 144.809 864.542 116.736 856.746 108.896Z" fill="#C6FF34"/>
<path d="M545.508 52.7463C547.984 54.7204 550.651 59.2356 554.342 62.0077C560.343 66.5019 565.843 67.1739 567.177 75.7003C570.011 93.908 555.318 105.585 535.102 103.232C527.625 102.35 522.744 96.5121 514.814 98.3602C504.718 100.712 503.265 117.912 512.885 119.823C523.982 122.007 533.435 114.888 544.936 118.08C562.057 122.805 561.176 146.704 543.055 150.547C532.554 152.773 523.553 147.439 514.076 151.513C503.194 156.197 500.598 175.055 513.6 175.349C518.243 175.454 524.268 170.33 529.244 168.671C551.747 161.174 571.868 172.577 572.463 193.851C573.797 241.25 474.405 261.369 468.571 199.836C464.952 161.678 479.763 121.461 474.357 81.8115C473.405 74.8812 468.69 65.5778 472.405 59.4246C482.096 43.4009 531.816 41.8259 545.532 52.7673L545.508 52.7463Z" fill="#C6FF34"/>
<path d="M744.811 51.7259C759.347 50.5895 777.852 53.0728 789.4 61.3859C812.232 77.8436 795.926 106.739 767.07 103.814C762.503 103.351 757.674 100.531 753.275 100.889C742.062 101.815 738.476 117.157 747.632 121.682C757.65 126.627 771.158 113.284 784.594 121.787C793.846 127.638 795.353 142.412 785.813 148.578C775.15 155.481 761.212 149.231 753.131 155.502C742.397 163.857 749.187 182.209 763.005 174.085C765.181 172.802 766.95 170.381 769.173 168.887C788.969 155.628 816.152 163.31 818.256 186.292C823.181 239.916 730.204 270.811 710.838 212.536C730.036 189.196 733.192 157.312 713.731 133.257C711.364 130.31 704.598 125.007 703.546 122.481C699.578 113.032 700.223 90.1974 704.503 80.8321C705.459 78.7485 716.743 60.6492 717.748 59.8285C723.246 55.3668 737.352 52.2942 744.764 51.7259H744.811Z" fill="#C6FF34"/>
</svg>
